<svg width="1920" height="700" viewBox="0 0 1920 700" fill="none" xmlns="http://www.w3.org/2000/svg">
<g opacity="0.44" clip-path="url(#clip0_149_124)">
<rect opacity="0.01" x="2891.5" y="-315" width="1" height="1900" transform="rotate(45 2891.5 -315)" fill="#C4C4C4"/>
<rect opacity="0.015748" x="2867.5" y="-315" width="1" height="1900" transform="rotate(45 2867.5 -315)" fill="#C4C4C4"/>
<rect opacity="0.023622" x="2843.5" y="-315" width="1" height="1900" transform="rotate(45 2843.5 -315)" fill="#C4C4C4"/>
<rect opacity="0.0314961" x="2819.5" y="-315" width="1" height="1900" transform="rotate(45 2819.5 -315)" fill="#C4C4C4"/>
<rect opacity="0.0393701" x="2795.5" y="-315" width="1" height="1900" transform="rotate(45 2795.5 -315)" fill="#C4C4C4"/>
<rect opacity="0.0472441" x="2771.5" y="-315" width="1" height="1900" transform="rotate(45 2771.5 -315)" fill="#C4C4C4"/>
<rect opacity="0.0551181" x="2747.5" y="-315" width="1" height="1900" transform="rotate(45 2747.5 -315)" fill="#C4C4C4"/>
<rect opacity="0.0629921" x="2723.5" y="-315" width="1" height="1900" transform="rotate(45 2723.5 -315)" fill="#C4C4C4"/>
<rect opacity="0.0708661" x="2699.5" y="-315" width="1" height="1900" transform="rotate(45 2699.5 -315)" fill="#C4C4C4"/>
<rect opacity="0.0787402" x="2675.5" y="-315" width="1" height="1900" transform="rotate(45 2675.5 -315)" fill="#C4C4C4"/>
<rect opacity="0.0866142" x="2651.5" y="-315" width="1" height="1900" transform="rotate(45 2651.5 -315)" fill="#C4C4C4"/>
<rect opacity="0.0944882" x="2627.5" y="-315" width="1" height="1900" transform="rotate(45 2627.5 -315)" fill="#C4C4C4"/>
<rect opacity="0.102362" x="2603.5" y="-315" width="1" height="1900" transform="rotate(45 2603.5 -315)" fill="#C4C4C4"/>
<rect opacity="0.110236" x="2579.5" y="-315" width="1" height="1900" transform="rotate(45 2579.5 -315)" fill="#C4C4C4"/>
<rect opacity="0.11811" x="2555.5" y="-315" width="1" height="1900" transform="rotate(45 2555.5 -315)" fill="#C4C4C4"/>
<rect opacity="0.125984" x="2531.5" y="-315" width="1" height="1900" transform="rotate(45 2531.5 -315)" fill="#C4C4C4"/>
<rect opacity="0.133858" x="2507.5" y="-315" width="1" height="1900" transform="rotate(45 2507.5 -315)" fill="#C4C4C4"/>
<rect opacity="0.141732" x="2483.5" y="-315" width="1" height="1900" transform="rotate(45 2483.5 -315)" fill="#C4C4C4"/>
<rect opacity="0.149606" x="2459.5" y="-315" width="1" height="1900" transform="rotate(45 2459.5 -315)" fill="#C4C4C4"/>
<rect opacity="0.15748" x="2435.5" y="-315" width="1" height="1900" transform="rotate(45 2435.5 -315)" fill="#C4C4C4"/>
<rect opacity="0.165354" x="2411.5" y="-315" width="1" height="1900" transform="rotate(45 2411.5 -315)" fill="#C4C4C4"/>
<rect opacity="0.173228" x="2387.5" y="-315" width="1" height="1900" transform="rotate(45 2387.5 -315)" fill="#C4C4C4"/>
<rect opacity="0.181102" x="2363.5" y="-315" width="1" height="1900" transform="rotate(45 2363.5 -315)" fill="#C4C4C4"/>
<rect opacity="0.188976" x="2339.5" y="-315" width="1" height="1900" transform="rotate(45 2339.5 -315)" fill="#C4C4C4"/>
<rect opacity="0.19685" x="2315.5" y="-315" width="1" height="1900" transform="rotate(45 2315.5 -315)" fill="#C4C4C4"/>
<rect opacity="0.204724" x="2291.5" y="-315" width="1" height="1900" transform="rotate(45 2291.5 -315)" fill="#C4C4C4"/>
<rect opacity="0.212598" x="2267.5" y="-315" width="1" height="1900" transform="rotate(45 2267.5 -315)" fill="#C4C4C4"/>
<rect opacity="0.220472" x="2243.5" y="-315" width="1" height="1900" transform="rotate(45 2243.5 -315)" fill="#C4C4C4"/>
<rect opacity="0.228346" x="2219.5" y="-315" width="1" height="1900" transform="rotate(45 2219.5 -315)" fill="#C4C4C4"/>
<rect opacity="0.23622" x="2195.5" y="-315" width="1" height="1900" transform="rotate(45 2195.5 -315)" fill="#C4C4C4"/>
<rect opacity="0.244094" x="2171.5" y="-315" width="1" height="1900" transform="rotate(45 2171.5 -315)" fill="#C4C4C4"/>
<rect opacity="0.251969" x="2147.5" y="-315" width="1" height="1900" transform="rotate(45 2147.5 -315)" fill="#C4C4C4"/>
<rect opacity="0.259843" x="2123.5" y="-315" width="1" height="1900" transform="rotate(45 2123.5 -315)" fill="#C4C4C4"/>
<rect opacity="0.267717" x="2099.5" y="-315" width="1" height="1900" transform="rotate(45 2099.5 -315)" fill="#C4C4C4"/>
<rect opacity="0.275591" x="2075.5" y="-315" width="1" height="1900" transform="rotate(45 2075.5 -315)" fill="#C4C4C4"/>
<rect opacity="0.283465" x="2051.5" y="-315" width="1" height="1900" transform="rotate(45 2051.5 -315)" fill="#C4C4C4"/>
<rect opacity="0.291339" x="2027.5" y="-315" width="1" height="1900" transform="rotate(45 2027.5 -315)" fill="#C4C4C4"/>
<rect opacity="0.299213" x="2003.5" y="-315" width="1" height="1900" transform="rotate(45 2003.5 -315)" fill="#C4C4C4"/>
<rect opacity="0.307087" x="1979.5" y="-315" width="1" height="1900" transform="rotate(45 1979.5 -315)" fill="#C4C4C4"/>
<rect opacity="0.314961" x="1955.5" y="-315" width="1" height="1900" transform="rotate(45 1955.5 -315)" fill="#C4C4C4"/>
<rect opacity="0.322835" x="1931.5" y="-315" width="1" height="1900" transform="rotate(45 1931.5 -315)" fill="#C4C4C4"/>
<rect opacity="0.330709" x="1907.5" y="-315" width="1" height="1900" transform="rotate(45 1907.5 -315)" fill="#C4C4C4"/>
<rect opacity="0.338583" x="1883.5" y="-315" width="1" height="1900" transform="rotate(45 1883.5 -315)" fill="#C4C4C4"/>
<rect opacity="0.346457" x="1859.5" y="-315" width="1" height="1900" transform="rotate(45 1859.5 -315)" fill="#C4C4C4"/>
<rect opacity="0.354331" x="1835.5" y="-315" width="1" height="1900" transform="rotate(45 1835.5 -315)" fill="#C4C4C4"/>
<rect opacity="0.362205" x="1811.5" y="-315" width="1" height="1900" transform="rotate(45 1811.5 -315)" fill="#C4C4C4"/>
<rect opacity="0.370079" x="1787.5" y="-315" width="1" height="1900" transform="rotate(45 1787.5 -315)" fill="#C4C4C4"/>
<rect opacity="0.377953" x="1763.5" y="-315" width="1" height="1900" transform="rotate(45 1763.5 -315)" fill="#C4C4C4"/>
<rect opacity="0.385827" x="1739.5" y="-315" width="1" height="1900" transform="rotate(45 1739.5 -315)" fill="#C4C4C4"/>
<rect opacity="0.393701" x="1715.5" y="-315" width="1" height="1900" transform="rotate(45 1715.5 -315)" fill="#C4C4C4"/>
<rect opacity="0.401575" x="1691.5" y="-315" width="1" height="1900" transform="rotate(45 1691.5 -315)" fill="#C4C4C4"/>
<rect opacity="0.409449" x="1667.5" y="-315" width="1" height="1900" transform="rotate(45 1667.5 -315)" fill="#C4C4C4"/>
<rect opacity="0.417323" x="1643.5" y="-315" width="1" height="1900" transform="rotate(45 1643.5 -315)" fill="#C4C4C4"/>
<rect opacity="0.425197" x="1619.5" y="-315" width="1" height="1900" transform="rotate(45 1619.5 -315)" fill="#C4C4C4"/>
<rect opacity="0.433071" x="1595.5" y="-315" width="1" height="1900" transform="rotate(45 1595.5 -315)" fill="#C4C4C4"/>
<rect opacity="0.440945" x="1571.5" y="-315" width="1" height="1900" transform="rotate(45 1571.5 -315)" fill="#C4C4C4"/>
<rect opacity="0.448819" x="1547.5" y="-315" width="1" height="1900" transform="rotate(45 1547.5 -315)" fill="#C4C4C4"/>
<rect opacity="0.456693" x="1523.5" y="-315" width="1" height="1900" transform="rotate(45 1523.5 -315)" fill="#C4C4C4"/>
<rect opacity="0.464567" x="1499.5" y="-315" width="1" height="1900" transform="rotate(45 1499.5 -315)" fill="#C4C4C4"/>
<rect opacity="0.472441" x="1475.5" y="-315" width="1" height="1900" transform="rotate(45 1475.5 -315)" fill="#C4C4C4"/>
<rect opacity="0.480315" x="1451.5" y="-315" width="1" height="1900" transform="rotate(45 1451.5 -315)" fill="#C4C4C4"/>
<rect opacity="0.488189" x="1427.5" y="-315" width="1" height="1900" transform="rotate(45 1427.5 -315)" fill="#C4C4C4"/>
<rect opacity="0.496063" x="1403.5" y="-315" width="1" height="1900" transform="rotate(45 1403.5 -315)" fill="#C4C4C4"/>
<rect opacity="0.503937" x="1379.5" y="-315" width="1" height="1900" transform="rotate(45 1379.5 -315)" fill="#C4C4C4"/>
<rect opacity="0.511811" x="1355.5" y="-315" width="1" height="1900" transform="rotate(45 1355.5 -315)" fill="#C4C4C4"/>
<rect opacity="0.519685" x="1331.5" y="-315" width="1" height="1900" transform="rotate(45 1331.5 -315)" fill="#C4C4C4"/>
<rect opacity="0.527559" x="1307.5" y="-315" width="1" height="1900" transform="rotate(45 1307.5 -315)" fill="#C4C4C4"/>
<rect opacity="0.535433" x="1283.5" y="-315" width="1" height="1900" transform="rotate(45 1283.5 -315)" fill="#C4C4C4"/>
<rect opacity="0.543307" x="1259.5" y="-315" width="1" height="1900" transform="rotate(45 1259.5 -315)" fill="#C4C4C4"/>
<rect opacity="0.551181" x="1235.5" y="-315" width="1" height="1900" transform="rotate(45 1235.5 -315)" fill="#C4C4C4"/>
<rect opacity="0.559055" x="1211.5" y="-315" width="1" height="1900" transform="rotate(45 1211.5 -315)" fill="#C4C4C4"/>
<rect opacity="0.566929" x="1187.5" y="-315" width="1" height="1900" transform="rotate(45 1187.5 -315)" fill="#C4C4C4"/>
<rect opacity="0.574803" x="1163.5" y="-315" width="1" height="1900" transform="rotate(45 1163.5 -315)" fill="#C4C4C4"/>
<rect opacity="0.582677" x="1139.5" y="-315" width="1" height="1900" transform="rotate(45 1139.5 -315)" fill="#C4C4C4"/>
<rect opacity="0.590551" x="1115.5" y="-315" width="1" height="1900" transform="rotate(45 1115.5 -315)" fill="#C4C4C4"/>
<rect opacity="0.598425" x="1091.5" y="-315" width="1" height="1900" transform="rotate(45 1091.5 -315)" fill="#C4C4C4"/>
<rect opacity="0.606299" x="1067.5" y="-315" width="1" height="1900" transform="rotate(45 1067.5 -315)" fill="#C4C4C4"/>
<rect opacity="0.614173" x="1043.5" y="-315" width="1" height="1900" transform="rotate(45 1043.5 -315)" fill="#C4C4C4"/>
<rect opacity="0.622047" x="1019.5" y="-315" width="1" height="1900" transform="rotate(45 1019.5 -315)" fill="#C4C4C4"/>
<rect opacity="0.629921" x="995.502" y="-315" width="1" height="1900" transform="rotate(45 995.502 -315)" fill="#C4C4C4"/>
<rect opacity="0.637795" x="971.502" y="-315" width="1" height="1900" transform="rotate(45 971.502 -315)" fill="#C4C4C4"/>
<rect opacity="0.645669" x="947.502" y="-315" width="1" height="1900" transform="rotate(45 947.502 -315)" fill="#C4C4C4"/>
<rect opacity="0.653543" x="923.502" y="-315" width="1" height="1900" transform="rotate(45 923.502 -315)" fill="#C4C4C4"/>
<rect opacity="0.661417" x="899.502" y="-315" width="1" height="1900" transform="rotate(45 899.502 -315)" fill="#C4C4C4"/>
<rect opacity="0.669291" x="875.502" y="-315" width="1" height="1900" transform="rotate(45 875.502 -315)" fill="#C4C4C4"/>
<rect opacity="0.677165" x="851.502" y="-315" width="1" height="1900" transform="rotate(45 851.502 -315)" fill="#C4C4C4"/>
<rect opacity="0.685039" x="827.502" y="-315" width="1" height="1900" transform="rotate(45 827.502 -315)" fill="#C4C4C4"/>
<rect opacity="0.692913" x="803.502" y="-315" width="1" height="1900" transform="rotate(45 803.502 -315)" fill="#C4C4C4"/>
<rect opacity="0.700787" x="779.502" y="-315" width="1" height="1900" transform="rotate(45 779.502 -315)" fill="#C4C4C4"/>
<rect opacity="0.708661" x="755.502" y="-315" width="1" height="1900" transform="rotate(45 755.502 -315)" fill="#C4C4C4"/>
<rect opacity="0.716535" x="731.502" y="-315" width="1" height="1900" transform="rotate(45 731.502 -315)" fill="#C4C4C4"/>
<rect opacity="0.724409" x="707.502" y="-315" width="1" height="1900" transform="rotate(45 707.502 -315)" fill="#C4C4C4"/>
<rect opacity="0.732283" x="683.502" y="-315" width="1" height="1900" transform="rotate(45 683.502 -315)" fill="#C4C4C4"/>
<rect opacity="0.740157" x="659.502" y="-315" width="1" height="1900" transform="rotate(45 659.502 -315)" fill="#C4C4C4"/>
<rect opacity="0.748031" x="635.502" y="-315" width="1" height="1900" transform="rotate(45 635.502 -315)" fill="#C4C4C4"/>
<rect opacity="0.755906" x="611.502" y="-315" width="1" height="1900" transform="rotate(45 611.502 -315)" fill="#C4C4C4"/>
<rect opacity="0.76378" x="587.502" y="-315" width="1" height="1900" transform="rotate(45 587.502 -315)" fill="#C4C4C4"/>
<rect opacity="0.771654" x="563.502" y="-315" width="1" height="1900" transform="rotate(45 563.502 -315)" fill="#C4C4C4"/>
<rect opacity="0.779528" x="539.502" y="-315" width="1" height="1900" transform="rotate(45 539.502 -315)" fill="#C4C4C4"/>
<rect opacity="0.787402" x="515.502" y="-315" width="1" height="1900" transform="rotate(45 515.502 -315)" fill="#C4C4C4"/>
<rect opacity="0.795276" x="491.502" y="-315" width="1" height="1900" transform="rotate(45 491.502 -315)" fill="#C4C4C4"/>
<rect opacity="0.80315" x="467.502" y="-315" width="1" height="1900" transform="rotate(45 467.502 -315)" fill="#C4C4C4"/>
<rect opacity="0.811024" x="443.502" y="-315" width="1" height="1900" transform="rotate(45 443.502 -315)" fill="#C4C4C4"/>
<rect opacity="0.818898" x="419.502" y="-315" width="1" height="1900" transform="rotate(45 419.502 -315)" fill="#C4C4C4"/>
<rect opacity="0.826772" x="395.502" y="-315" width="1" height="1900" transform="rotate(45 395.502 -315)" fill="#C4C4C4"/>
<rect opacity="0.834646" x="371.502" y="-315" width="1" height="1900" transform="rotate(45 371.502 -315)" fill="#C4C4C4"/>
<rect opacity="0.84252" x="347.502" y="-315" width="1" height="1900" transform="rotate(45 347.502 -315)" fill="#C4C4C4"/>
<rect opacity="0.850394" x="323.502" y="-315" width="1" height="1900" transform="rotate(45 323.502 -315)" fill="#C4C4C4"/>
<rect opacity="0.858268" x="299.502" y="-315" width="1" height="1900" transform="rotate(45 299.502 -315)" fill="#C4C4C4"/>
<rect opacity="0.866142" x="275.502" y="-315" width="1" height="1900" transform="rotate(45 275.502 -315)" fill="#C4C4C4"/>
<rect opacity="0.874016" x="251.502" y="-315" width="1" height="1900" transform="rotate(45 251.502 -315)" fill="#C4C4C4"/>
<rect opacity="0.88189" x="227.502" y="-315" width="1" height="1900" transform="rotate(45 227.502 -315)" fill="#C4C4C4"/>
<rect opacity="0.889764" x="203.502" y="-315" width="1" height="1900" transform="rotate(45 203.502 -315)" fill="#C4C4C4"/>
<rect opacity="0.897638" x="179.502" y="-315" width="1" height="1900" transform="rotate(45 179.502 -315)" fill="#C4C4C4"/>
<rect opacity="0.905512" x="155.502" y="-315" width="1" height="1900" transform="rotate(45 155.502 -315)" fill="#C4C4C4"/>
<rect opacity="0.913386" x="131.502" y="-315" width="1" height="1900" transform="rotate(45 131.502 -315)" fill="#C4C4C4"/>
<rect opacity="0.92126" x="107.502" y="-315" width="1" height="1900" transform="rotate(45 107.502 -315)" fill="#C4C4C4"/>
<rect opacity="0.929134" x="83.502" y="-315" width="1" height="1900" transform="rotate(45 83.502 -315)" fill="#C4C4C4"/>
<rect opacity="0.937008" x="59.502" y="-315" width="1" height="1900" transform="rotate(45 59.502 -315)" fill="#C4C4C4"/>
<rect opacity="0.944882" x="35.502" y="-315" width="1" height="1900" transform="rotate(45 35.502 -315)" fill="#C4C4C4"/>
<rect opacity="0.952756" x="11.502" y="-315" width="1" height="1900" transform="rotate(45 11.502 -315)" fill="#C4C4C4"/>
</g>
<defs>
<clipPath id="clip0_149_124">
<rect width="1920" height="700" fill="white"/>
</clipPath>
</defs>
</svg>
